<?xml version="1.0" standalone="no"?>
<!DOCTYPE svg PUBLIC "-//W3C//DTD SVG 20010904//EN"
 "http://www.w3.org/TR/2001/REC-SVG-20010904/DTD/svg10.dtd">
<svg version="1.0" xmlns="http://www.w3.org/2000/svg"
 width="1280.000000pt" height="1238.000000pt" viewBox="0 0 1280.000000 1238.000000"
 preserveAspectRatio="xMidYMid meet">
<metadata>
Created by potrace 1.15, written by Peter Selinger 2001-2017
</metadata>
<g transform="translate(0.000000,1238.000000) scale(0.100000,-0.100000)"
fill="#000000" stroke="none">
<path d="M7555 12357 c-90 -43 -196 -180 -211 -276 -24 -152 239 -332 466
-319 120 7 180 48 215 149 61 173 -75 382 -294 449 -82 26 -115 25 -176 -3z"/>
<path d="M3449 11995 c-148 -40 -272 -153 -320 -293 -27 -77 -27 -195 0 -282
46 -146 137 -258 344 -427 389 -315 645 -561 842 -808 31 -38 124 -171 207
-294 149 -219 317 -446 325 -437 6 6 -832 2167 -878 2263 -105 221 -317 334
-520 278z"/>
<path d="M5964 11391 c-91 -42 -119 -118 -118 -326 1 -201 23 -343 134 -855
67 -308 97 -460 115 -578 53 -355 34 -558 -61 -642 -77 -67 -256 -89 -410 -50
-159 41 -403 179 -583 331 l-73 62 63 -81 c206 -261 296 -505 259 -701 -20
-106 -96 -223 -169 -260 -123 -63 -301 -14 -543 148 -169 114 -310 232 -602
505 -64 60 -119 107 -121 104 -3 -3 52 -72 122 -154 326 -384 496 -621 617
-862 82 -162 118 -276 124 -394 8 -158 -26 -240 -113 -279 -135 -60 -329 -27
-870 146 -323 103 -466 141 -592 157 -155 20 -244 -10 -277 -92 -52 -130 29
-254 235 -360 124 -64 277 -120 584 -215 414 -127 588 -196 716 -280 114 -76
179 -169 179 -257 0 -46 -37 -105 -88 -143 -141 -104 -414 -169 -1047 -250
-825 -105 -1054 -152 -1194 -246 -67 -45 -91 -82 -91 -142 0 -91 81 -155 232
-184 66 -12 125 -14 288 -10 210 6 360 21 789 82 596 84 850 105 1034 86 202
-20 281 -58 332 -160 27 -54 18 -159 -23 -245 -110 -233 -420 -523 -922 -861
-198 -133 -223 -154 -130 -103 444 243 916 433 1220 489 101 19 294 17 362 -4
116 -35 181 -112 180 -213 -1 -159 -105 -345 -465 -833 -100 -135 -214 -294
-253 -353 -205 -309 -237 -478 -106 -555 121 -71 268 -2 458 215 85 96 177
218 369 487 313 438 453 592 609 670 186 94 339 -12 393 -271 22 -107 21 -384
-1 -574 -9 -80 -32 -246 -51 -370 -42 -274 -49 -350 -36 -370 5 -8 12 -12 15
-9 4 3 24 73 47 155 150 554 355 993 558 1195 104 104 165 133 290 138 180 6
230 -27 283 -191 28 -89 38 -106 67 -125 41 -28 109 -30 208 -7 114 26 191 2
296 -95 118 -109 225 -270 492 -741 228 -402 353 -568 477 -629 72 -36 108
-38 180 -11 74 28 152 26 214 -5 124 -63 230 -178 469 -512 190 -266 242 -332
331 -420 88 -87 159 -127 229 -127 140 -1 195 112 146 303 -63 250 -250 620
-699 1381 -119 201 -282 478 -362 615 -429 731 -609 1124 -611 1330 -1 82 13
118 62 159 90 76 186 107 334 107 127 1 248 -24 474 -96 165 -52 233 -65 245
-47 8 14 -7 26 -106 85 -240 142 -419 331 -477 504 -26 76 -28 196 -6 271 57
191 343 248 1105 220 550 -19 1069 -17 1188 5 213 40 312 108 312 214 0 60
-22 99 -78 134 -139 88 -391 121 -1062 139 -201 5 -417 12 -480 15 -645 32
-887 127 -854 337 23 145 127 251 359 364 121 59 212 91 588 210 154 48 213
81 190 105 -10 10 -56 8 -225 -10 -393 -42 -655 -39 -845 9 -213 55 -348 180
-361 335 -12 154 74 276 417 589 243 221 320 325 328 445 4 58 2 72 -24 120
-15 30 -45 68 -66 84 -31 26 -49 32 -103 35 -57 4 -72 1 -127 -27 -86 -42
-166 -105 -352 -276 -271 -248 -389 -325 -510 -333 -48 -3 -71 1 -108 18 -123
58 -137 159 -46 335 78 154 201 314 571 747 553 646 718 898 718 1095 0 69
-17 109 -67 154 -141 127 -290 75 -544 -188 -128 -134 -256 -290 -514 -628
-481 -630 -669 -836 -849 -932 -61 -32 -80 -38 -136 -37 -79 0 -142 29 -219
101 -132 125 -186 298 -216 697 -15 194 -27 270 -44 280 -4 3 -11 -27 -15 -67
-10 -106 -53 -309 -87 -411 -72 -217 -186 -373 -320 -440 -136 -68 -230 -57
-314 36 -117 130 -198 384 -335 1048 -132 642 -209 883 -318 994 -63 66 -117
79 -188 47z"/>
<path d="M7583 11111 c-40 -25 -83 -88 -83 -123 0 -33 41 -83 89 -107 92 -47
179 -32 207 35 30 71 -11 149 -100 190 -62 29 -72 29 -113 5z"/>
<path d="M514 10417 c-203 -68 -432 -319 -499 -552 -25 -84 -16 -166 25 -243
147 -276 526 -483 884 -482 316 1 485 144 527 447 25 179 -43 357 -199 524
-125 134 -276 230 -447 285 -96 31 -230 41 -291 21z"/>
<path d="M10570 9653 c-80 -42 -108 -158 -54 -223 72 -84 180 -79 248 12 27
38 27 118 0 155 -50 67 -129 90 -194 56z"/>
<path d="M2215 8865 c-74 -40 -155 -151 -155 -213 0 -75 59 -143 170 -196 58
-28 75 -31 157 -31 99 0 123 10 167 68 24 33 33 130 16 181 -16 50 -97 136
-160 170 -65 35 -151 45 -195 21z"/>
<path d="M12392 8080 c-24 -5 -163 -57 -310 -115 -147 -58 -411 -163 -586
-233 -176 -70 -313 -128 -305 -130 8 -1 129 20 269 47 383 74 519 89 678 71
133 -14 232 -41 345 -92 153 -70 247 -62 294 24 26 48 23 177 -5 240 -28 63
-95 134 -155 165 -55 28 -155 38 -225 23z"/>
<path d="M10345 4851 c22 -21 364 -355 760 -742 948 -926 899 -880 975 -917
178 -87 338 -56 491 97 120 119 176 257 167 410 -8 138 -74 239 -198 301 -88
44 -167 59 -372 70 -488 24 -766 139 -1590 658 -141 89 -260 162 -264 162 -5
0 9 -17 31 -39z"/>
<path d="M2640 3701 c-465 -218 -862 -406 -882 -419 -57 -35 -121 -113 -142
-171 -45 -128 4 -299 120 -415 118 -117 267 -151 391 -87 46 23 119 99 156
161 14 25 46 92 70 151 57 138 103 220 192 337 135 179 302 333 645 595 296
226 323 247 309 246 -8 -1 -394 -179 -859 -398z"/>
<path d="M7359 3277 c-90 -34 -172 -112 -228 -217 -45 -85 -49 -128 -17 -194
87 -177 378 -299 574 -241 66 20 105 54 135 118 54 114 43 214 -36 329 -97
142 -316 246 -428 205z"/>
<path d="M6050 1763 c-128 -252 -331 -652 -451 -889 -121 -237 -228 -457 -240
-490 -26 -77 -36 -189 -19 -240 57 -177 261 -191 436 -32 98 91 170 216 218
380 13 46 63 322 111 613 48 292 108 661 135 820 26 160 46 291 45 293 -2 2
-107 -203 -235 -455z"/>
</g>
</svg>
